<?xml version="1.0" encoding="UTF-8" standalone="no"?>
<svg
   xmlns:dc="http://purl.org/dc/elements/1.1/"
   xmlns:cc="http://creativecommons.org/ns#"
   xmlns:rdf="http://www.w3.org/1999/02/22-rdf-syntax-ns#"
   xmlns:svg="http://www.w3.org/2000/svg"
   xmlns="http://www.w3.org/2000/svg"
   xmlns:xlink="http://www.w3.org/1999/xlink"
   xml:space="preserve"
   style="enable-background:new 0 0 127.852 127.852;"
   viewBox="0 0 127.852 127.852"
   y="0px"
   x="0px"
   id="Layer_1"
   version="1.1"><metadata
     id="metadata3042"><rdf:RDF><cc:Work
         rdf:about=""><dc:format>image/svg+xml</dc:format><dc:type
           rdf:resource="http://purl.org/dc/dcmitype/StillImage" /><dc:title></dc:title></cc:Work></rdf:RDF></metadata><defs
     id="defs3040"><linearGradient
       id="linearGradient1279"><stop
         id="stop1275"
         offset="0"
         style="stop-color:#ffc100;stop-opacity:1;" /><stop
         id="stop1277"
         offset="1"
         style="stop-color:#bf9100;stop-opacity:1" /></linearGradient><filter
       height="1.1656693"
       y="-0.082834675"
       width="1.0280658"
       x="-0.014032903"
       id="filter959"
       style="color-interpolation-filters:sRGB"><feGaussianBlur
         id="feGaussianBlur961"
         stdDeviation="0.51093836" /></filter><filter
       height="1.1596058"
       y="-0.079802876"
       width="1.0282476"
       x="-0.014123804"
       id="filter982"
       style="color-interpolation-filters:sRGB"><feGaussianBlur
         id="feGaussianBlur984"
         stdDeviation="0.36180686" /></filter><filter
       height="1.0951538"
       y="-0.04757688"
       width="1.0320951"
       x="-0.016047573"
       id="filter1013"
       style="color-interpolation-filters:sRGB"><feGaussianBlur
         id="feGaussianBlur1015"
         stdDeviation="0.26980333" /></filter><filter
       height="1.0917197"
       y="-0.045859872"
       width="1.0325056"
       x="-0.016252822"
       id="filter1060"
       style="color-interpolation-filters:sRGB"><feGaussianBlur
         id="feGaussianBlur1062"
         stdDeviation="0.35813799" /></filter><filter
       height="1.1297461"
       y="-0.06487306"
       width="1.029447"
       x="-0.014723504"
       id="filter1083"
       style="color-interpolation-filters:sRGB"><feGaussianBlur
         id="feGaussianBlur1085"
         stdDeviation="0.2612383" /></filter><filter
       height="1.0836284"
       y="-0.041814219"
       width="1.0336598"
       x="-0.01682991"
       id="filter1106"
       style="color-interpolation-filters:sRGB"><feGaussianBlur
         id="feGaussianBlur1108"
         stdDeviation="0.21015072" /></filter><filter
       height="1.1126957"
       y="-0.056347826"
       width="1.0304941"
       x="-0.015247059"
       id="filter1129"
       style="color-interpolation-filters:sRGB"><feGaussianBlur
         id="feGaussianBlur1131"
         stdDeviation="0.12892967" /></filter><filter
       height="1.097472"
       y="-0.048736007"
       width="1.0318397"
       x="-0.01591986"
       id="filter1171"
       style="color-interpolation-filters:sRGB"><feGaussianBlur
         id="feGaussianBlur1173"
         stdDeviation="0.39513845" /></filter><filter
       height="1.0435084"
       y="-0.021754188"
       width="1.0535258"
       x="-0.02676289"
       id="filter1196"
       style="color-interpolation-filters:sRGB"><feGaussianBlur
         id="feGaussianBlur1198"
         stdDeviation="0.30640433" /></filter><filter
       height="1.0290157"
       y="-0.014507848"
       width="1.1388395"
       x="-0.069419742"
       id="filter1239"
       style="color-interpolation-filters:sRGB"><feGaussianBlur
         id="feGaussianBlur1241"
         stdDeviation="0.18637954" /></filter><linearGradient
       gradientUnits="userSpaceOnUse"
       y2="37.296749"
       x2="78.228355"
       y1="37.612823"
       x1="65.269318"
       id="linearGradient1281"
       xlink:href="#linearGradient1279" /></defs><g
     id="g3007" /><g
     id="g3009" /><g
     id="g3011" /><g
     id="g3013" /><g
     id="g3015" /><g
     id="g3017" /><g
     id="g3019" /><g
     id="g3021" /><g
     id="g3023" /><g
     id="g3025" /><g
     id="g3027" /><g
     id="g3029" /><g
     id="g3031" /><g
     id="g3033" /><g
     id="g3035" /><g
     id="layer2"><path
       id="path3208-8"
       d="m 64.040029,83.846743 a 14.984291,6.030841 0 0 0 -14.985132,6.02994 14.984291,6.030841 0 0 0 14.985132,6.032027 14.984291,6.030841 0 0 0 14.983045,-6.032027 14.984291,6.030841 0 0 0 -14.983045,-6.02994 z m 0,2.386938 a 12.596704,3.702944 0 0 1 12.596107,3.703511 12.596704,3.702944 0 0 1 -12.596107,3.701422 12.596704,3.702944 0 0 1 -12.596107,-3.701422 12.596704,3.702944 0 0 1 12.596107,-3.703511 z"
       style="opacity:1;fill:#000000;fill-opacity:0.4509804;stroke:none;stroke-width:1.21542692;stroke-miterlimit:4;stroke-dasharray:none;stroke-opacity:1;paint-order:stroke markers fill;filter:url(#filter1106)" /><ellipse
       ry="2.7457244"
       rx="10.147243"
       cy="90.277176"
       cx="64.397903"
       id="path3226-0"
       style="opacity:1;fill:#000000;fill-opacity:0.4509804;stroke:none;stroke-width:1.02627194;stroke-miterlimit:4;stroke-dasharray:none;stroke-opacity:1;paint-order:stroke markers fill;filter:url(#filter1129)" /><ellipse
       ry="2.7457244"
       rx="10.147243"
       cy="89.80307"
       cx="64.397903"
       id="path3226"
       style="opacity:1;fill:#ffffff;fill-opacity:0.99029122;stroke:none;stroke-width:1.02627194;stroke-miterlimit:4;stroke-dasharray:none;stroke-opacity:1;paint-order:stroke markers fill" /><ellipse
       ry="1.6882787"
       rx="3.2077296"
       cy="126.16286"
       cx="63.963726"
       id="path3230"
       style="opacity:1;fill:#ffffff;fill-opacity:0.98543689;stroke:none;stroke-width:1.06996238;stroke-miterlimit:4;stroke-dasharray:none;stroke-opacity:1;paint-order:stroke markers fill" /><path
       id="path3208"
       d="m 64.040029,83.056558 a 14.984291,6.030841 0 0 0 -14.985132,6.02994 14.984291,6.030841 0 0 0 14.985132,6.032027 14.984291,6.030841 0 0 0 14.983045,-6.032027 14.984291,6.030841 0 0 0 -14.983045,-6.02994 z m 0,2.386938 a 12.596704,3.702944 0 0 1 12.596107,3.703511 12.596704,3.702944 0 0 1 -12.596107,3.701422 12.596704,3.702944 0 0 1 -12.596107,-3.701422 12.596704,3.702944 0 0 1 12.596107,-3.703511 z"
       style="opacity:1;fill:#ffffff;fill-opacity:1;stroke:none;stroke-width:1.21542692;stroke-miterlimit:4;stroke-dasharray:none;stroke-opacity:1;paint-order:stroke markers fill" /><path
       id="path3204-5"
       d="m 44.447939,78.166317 -0.214908,0.392259 -1.571123,2.856397 9.042825,4.967921 16.426892,1.448019 14.676333,-3.177716 2.437014,-5.735746 -5.627249,-0.279588 -9.314067,2.626883 -8.859214,-0.354702 -11.38386,-0.830421 z m 0.502843,1.29988 4.894892,1.669187 11.538261,0.840854 9.046997,0.363048 9.307807,-2.626884 3.924677,0.19613 -1.623285,3.816179 -13.975273,3.029577 -16.04298,-1.416724 -7.909863,-4.34406 z"
       style="color:#000000;font-style:normal;font-variant:normal;font-weight:normal;font-stretch:normal;font-size:medium;line-height:normal;font-family:sans-serif;font-variant-ligatures:normal;font-variant-position:normal;font-variant-caps:normal;font-variant-numeric:normal;font-variant-alternates:normal;font-feature-settings:normal;text-indent:0;text-align:start;text-decoration:none;text-decoration-line:none;text-decoration-style:solid;text-decoration-color:#000000;letter-spacing:normal;word-spacing:normal;text-transform:none;writing-mode:lr-tb;direction:ltr;text-orientation:mixed;dominant-baseline:auto;baseline-shift:baseline;text-anchor:start;white-space:normal;shape-padding:0;clip-rule:nonzero;display:inline;overflow:visible;visibility:visible;opacity:1;isolation:auto;mix-blend-mode:normal;color-interpolation:sRGB;color-interpolation-filters:linearRGB;solid-color:#000000;solid-opacity:1;vector-effect:none;fill:#000000;fill-opacity:0.4509804;fill-rule:evenodd;stroke:none;stroke-width:1.0682801px;stroke-linecap:butt;stroke-linejoin:miter;stroke-miterlimit:4;stroke-dasharray:none;stroke-dashoffset:0;stroke-opacity:1;color-rendering:auto;image-rendering:auto;shape-rendering:auto;text-rendering:auto;enable-background:accumulate;filter:url(#filter1083)" /><path
       id="path3204"
       d="m 44.447939,77.692206 -0.214908,0.392259 -1.571123,2.856397 9.042825,4.967921 16.426892,1.448019 14.676333,-3.177716 2.437014,-5.735746 -5.627249,-0.279588 -9.314067,2.626883 -8.859214,-0.354702 -11.38386,-0.830421 z m 0.502843,1.29988 4.894892,1.669187 11.538261,0.840854 9.046997,0.363048 9.307807,-2.626884 3.924677,0.19613 -1.623285,3.816179 -13.975273,3.029577 -16.04298,-1.416724 -7.909863,-4.34406 z"
       style="color:#000000;font-style:normal;font-variant:normal;font-weight:normal;font-stretch:normal;font-size:medium;line-height:normal;font-family:sans-serif;font-variant-ligatures:normal;font-variant-position:normal;font-variant-caps:normal;font-variant-numeric:normal;font-variant-alternates:normal;font-feature-settings:normal;text-indent:0;text-align:start;text-decoration:none;text-decoration-line:none;text-decoration-style:solid;text-decoration-color:#000000;letter-spacing:normal;word-spacing:normal;text-transform:none;writing-mode:lr-tb;direction:ltr;text-orientation:mixed;dominant-baseline:auto;baseline-shift:baseline;text-anchor:start;white-space:normal;shape-padding:0;clip-rule:nonzero;display:inline;overflow:visible;visibility:visible;opacity:1;isolation:auto;mix-blend-mode:normal;color-interpolation:sRGB;color-interpolation-filters:linearRGB;solid-color:#000000;solid-opacity:1;vector-effect:none;fill:#ffffff;fill-opacity:1;fill-rule:evenodd;stroke:none;stroke-width:1.0682801px;stroke-linecap:butt;stroke-linejoin:miter;stroke-miterlimit:4;stroke-dasharray:none;stroke-dashoffset:0;stroke-opacity:1;color-rendering:auto;image-rendering:auto;shape-rendering:auto;text-rendering:auto;enable-background:accumulate" /><path
       id="path3197-1"
       d="m 37.895689,76.14835 6.088346,-7.759656 17.190624,-3.223242 16.951864,1.551931 10.027864,4.297656 2.626345,2.745724 -2.984483,6.207726 -18.384417,3.939518 -21.010762,-1.671311 z"
       style="fill:#000000;fill-opacity:0.4509804;fill-rule:evenodd;stroke:none;stroke-width:1.0682801px;stroke-linecap:butt;stroke-linejoin:miter;stroke-opacity:1;filter:url(#filter1060)" /><path
       id="path3197"
       d="m 37.895689,75.358165 6.088346,-7.759656 17.190624,-3.223242 16.951864,1.551931 10.027864,4.297656 2.626345,2.745724 -2.984483,6.207726 -18.384417,3.939518 -21.010762,-1.671311 z"
       style="fill:#ffffff;fill-opacity:0.97572817;fill-rule:evenodd;stroke:none;stroke-width:1.0682801px;stroke-linecap:butt;stroke-linejoin:miter;stroke-opacity:1" /><path
       id="path3195"
       d="m 49.594863,78.223269 20.175107,1.193793 15.399934,-3.223241 2.506966,-5.610829 -9.908485,-4.655794 -16.354968,-1.432552 -16.951865,3.223242 -4.536414,5.37207 z"
       style="fill:#ffc100;fill-opacity:0.99533975;fill-rule:evenodd;stroke:none;stroke-width:1.0682801px;stroke-linecap:butt;stroke-linejoin:miter;stroke-opacity:1" /><path
       id="path3177-4"
       d="m 65.054061,54.144084 a 29.785144,9.7294151 0 0 0 -29.784568,9.729278 29.785144,9.7294151 0 0 0 29.784568,9.729277 29.785144,9.7294151 0 0 0 29.784567,-9.729277 29.785144,9.7294151 0 0 0 -29.784567,-9.729278 z m 0,6.088362 A 22.861143,5.4914491 0 0 1 87.915672,65.724073 22.861143,5.4914491 0 0 1 65.054061,71.2157 22.861143,5.4914491 0 0 1 42.192449,65.724073 22.861143,5.4914491 0 0 1 65.054061,60.232446 Z"
       style="opacity:1;fill:#000000;fill-opacity:0.27058825;stroke:none;stroke-width:0.94555569;stroke-miterlimit:4;stroke-dasharray:none;stroke-opacity:1;paint-order:stroke markers fill;filter:url(#filter1171)" /><path
       id="path3177"
       d="m 65.054061,53.511936 a 29.785144,9.7294151 0 0 0 -29.784568,9.729278 29.785144,9.7294151 0 0 0 29.784568,9.729277 29.785144,9.7294151 0 0 0 29.784567,-9.729277 29.785144,9.7294151 0 0 0 -29.784567,-9.729278 z m 0,6.088362 a 22.861143,5.4914491 0 0 1 22.861611,5.491627 22.861143,5.4914491 0 0 1 -22.861611,5.491627 22.861143,5.4914491 0 0 1 -22.861612,-5.491627 22.861143,5.4914491 0 0 1 22.861612,-5.491627 z"
       style="opacity:1;fill:#ffc100;fill-opacity:0.99533975;stroke:none;stroke-width:0.94555569;stroke-miterlimit:4;stroke-dasharray:none;stroke-opacity:1;paint-order:stroke markers fill" /><path
       id="path3141-0"
       d="m 64.398904,53.543655 a 20.175107,6.8046222 0 0 0 -20.176305,6.804027 20.175107,6.8046222 0 0 0 20.176305,6.806113 20.175107,6.8046222 0 0 0 20.17422,-6.806113 20.175107,6.8046222 0 0 0 -20.17422,-6.804027 z m 0,2.386939 A 13.848003,3.8798285 0 0 1 78.246903,59.811455 13.848003,3.8798285 0 0 1 64.398904,63.69023 13.848003,3.8798285 0 0 1 50.550907,59.811455 13.848003,3.8798285 0 0 1 64.398904,55.930594 Z"
       style="opacity:1;fill:#000000;fill-opacity:0.4509804;stroke:none;stroke-width:1.05543542;stroke-miterlimit:4;stroke-dasharray:none;stroke-opacity:1;paint-order:stroke markers fill;filter:url(#filter1013)" /><path
       id="path3141"
       d="m 64.398904,52.437396 a 20.175107,6.8046222 0 0 0 -20.176305,6.804027 20.175107,6.8046222 0 0 0 20.176305,6.806113 20.175107,6.8046222 0 0 0 20.17422,-6.806113 20.175107,6.8046222 0 0 0 -20.17422,-6.804027 z m 0,2.386939 a 13.848003,3.8798285 0 0 1 13.847999,3.880861 13.848003,3.8798285 0 0 1 -13.847999,3.878775 13.848003,3.8798285 0 0 1 -13.847997,-3.878775 13.848003,3.8798285 0 0 1 13.847997,-3.880861 z"
       style="opacity:1;fill:#ffffff;fill-opacity:0.94174757;stroke:none;stroke-width:1.05543542;stroke-miterlimit:4;stroke-dasharray:none;stroke-opacity:1;paint-order:stroke markers fill" /><path
       id="path3159"
       d="m 64.576256,53.393007 a 30.501419,8.8937597 0 0 0 -30.500231,8.892596 30.501419,8.8937597 0 0 0 30.500231,8.894684 30.501419,8.8937597 0 0 0 30.502317,-8.894684 30.501419,8.8937597 0 0 0 -30.502317,-8.892596 z m 0,1.074539 a 28.59135,7.819346 0 0 1 28.591098,7.818057 28.59135,7.819346 0 0 1 -28.591098,7.820145 28.59135,7.819346 0 0 1 -28.591099,-7.820145 28.59135,7.819346 0 0 1 28.591099,-7.818057 z"
       style="opacity:1;fill:#ffffff;fill-opacity:1;stroke:none;stroke-width:1.08796573;stroke-miterlimit:4;stroke-dasharray:none;stroke-opacity:1;paint-order:stroke markers fill" /><path
       id="path3255-1"
       d="m 79.212958,24.881987 -7.931574,1.416353 -9.064657,0.09443 -8.59254,-0.849812 -1.888471,-0.660964 0.566541,30.593219 c 0,0 5.09887,3.210398 13.219293,3.210398 8.120422,0 13.313715,-4.249057 13.313715,-4.249057 z"
       style="fill:#000000;fill-opacity:0.45098039;fill-rule:evenodd;stroke:none;stroke-width:1.0682801px;stroke-linecap:butt;stroke-linejoin:miter;stroke-opacity:1;filter:url(#filter1196)" /><path
       id="path3255"
       d="m 78.264736,23.301616 -7.931574,1.416353 -9.064657,0.09443 -8.59254,-0.849812 -1.888471,-0.660964 0.566541,30.593219 c 0,0 5.09887,3.210398 13.219293,3.210398 8.120422,0 13.313715,-4.249057 13.313715,-4.249057 z"
       style="fill:url(#linearGradient1281);fill-rule:evenodd;stroke:none;stroke-width:1.0682801px;stroke-linecap:butt;stroke-linejoin:miter;stroke-opacity:1;fill-opacity:1" /><path
       id="path3200"
       d="m 53.77314,78.223269 c 0,0 0.238758,-3.70076 10.266622,-3.70076 10.027864,0 10.863519,3.462001 10.863519,3.462001 l -5.252691,1.074415 z"
       style="fill:#ffffff;fill-opacity:0.99514561;fill-rule:evenodd;stroke:none;stroke-width:1.0682801px;stroke-linecap:butt;stroke-linejoin:miter;stroke-opacity:1" /><path
       id="path3202"
       d="m 58.787072,78.342648 c 0,0 -0.716277,-0.477517 -0.596896,-1.551931 0.119379,-1.074414 3.103862,-1.432552 6.327103,-1.313173 3.223243,0.11938 6.088346,0.835656 6.207726,1.432552 0.119379,0.596898 -2.148829,2.029449 -2.148829,2.029449 z"
       style="fill:#009e00;fill-opacity:1;fill-rule:evenodd;stroke:none;stroke-width:1.0682801px;stroke-linecap:butt;stroke-linejoin:miter;stroke-opacity:1" /><path
       id="path3228-7"
       d="m 67.041548,96.258741 h -4.630951 l 1.749471,0.909899 0.1029,27.46237 c 0,0 -2.77857,0.33087 -2.77857,1.07534 0,0.74445 1.74848,1.38473 2.983895,1.38473 1.235416,0 3.459674,-0.50283 3.459674,-1.60553 0,-1.1027 -3.047539,-0.93726 -3.047539,-0.93726 L 65.39498,97.416793 Z"
       style="fill:#000000;fill-rule:evenodd;stroke:none;stroke-width:1.16761541px;stroke-linecap:butt;stroke-linejoin:miter;stroke-opacity:1;fill-opacity:0.4509804;filter:url(#filter1239)" /><path
       id="path3228"
       d="m 65.989663,95.942667 h -3.798627 l 1.435037,0.928554 0.08441,28.025429 c 0,0 -2.279176,0.33765 -2.279176,1.09738 0,0.75972 1.434225,1.41312 2.447598,1.41312 1.013373,0 2.837864,-0.51314 2.837864,-1.63844 0,-1.12531 -2.499802,-0.95648 -2.499802,-0.95648 l 0.42207,-27.687768 z"
       style="fill:#ffc100;fill-rule:evenodd;stroke:none;stroke-width:1.0682801px;stroke-linecap:butt;stroke-linejoin:miter;stroke-opacity:1;fill-opacity:0.99533975" /><path
       id="path3102"
       d="M 64.755694,7.7887128 A 15.041796,12.296071 0 0 0 49.733005,19.775568 21.547968,13.012347 0 0 0 64.457326,23.307985 21.547968,13.012347 0 0 0 79.770036,19.437556 15.041796,12.296071 0 0 0 64.755694,7.7887128 Z"
       style="opacity:1;fill:#ffc100;fill-opacity:0.99533975;stroke:none;stroke-width:1.04260528;stroke-miterlimit:4;stroke-dasharray:none;stroke-opacity:1;paint-order:stroke markers fill" /><path
       id="path3107"
       d="m 82.096466,18.168974 c 0.371294,0.255593 0.56125,0.518447 0.565437,0.782432 -0.0014,1.746993 -7.964566,3.163087 -17.78728,3.163111 -9.822714,-2.3e-5 -17.785911,-1.416118 -17.787281,-3.163111 0.0074,-0.261175 0.196623,-0.521183 0.563351,-0.774086 -1.997994,0.877235 -3.060965,1.889623 -3.069219,2.923165 0.0022,3.065241 9.086893,5.549846 20.293149,5.550048 11.207071,1.13e-4 20.293033,-2.484585 20.295236,-5.550048 -0.0038,-1.036491 -1.068464,-2.051986 -3.073393,-2.931511 z"
       style="opacity:1;fill:#ffffff;fill-opacity:1;stroke:none;stroke-width:0.9380312;stroke-miterlimit:4;stroke-dasharray:none;stroke-opacity:1;paint-order:stroke markers fill" /><path
       id="path3084-9"
       d="m 77.004908,13.734069 c 0.292969,0.323963 0.570445,0.658196 0.824161,1.005685 a 28.53166,4.7154831 0 0 1 15.675759,4.204267 28.53166,4.7154831 0 0 1 -28.53059,4.715454 28.53166,4.7154831 0 0 1 -28.532676,-4.715454 28.53166,4.7154831 0 0 1 15.573521,-4.200094 c 0.253458,-0.347006 0.5273,-0.682018 0.819988,-1.005685 a 30.740178,5.6705175 0 0 0 -18.601009,5.205779 30.740178,5.6705175 0 0 0 30.740176,5.671065 30.740178,5.6705175 0 0 0 30.740178,-5.671065 30.740178,5.6705175 0 0 0 -18.709508,-5.209952 z"
       style="opacity:1;fill:#000000;fill-opacity:0.4509804;stroke:none;stroke-width:1.1127845;stroke-miterlimit:4;stroke-dasharray:none;stroke-opacity:1;paint-order:stroke markers fill;filter:url(#filter982)" /><path
       id="path3084"
       d="m 76.846871,12.785844 c 0.292969,0.323963 0.570445,0.658196 0.824161,1.005685 a 28.53166,4.7154831 0 0 1 15.675759,4.204267 28.53166,4.7154831 0 0 1 -28.53059,4.715454 28.53166,4.7154831 0 0 1 -28.532676,-4.715454 28.53166,4.7154831 0 0 1 15.573521,-4.200094 c 0.253458,-0.347006 0.5273,-0.682018 0.819988,-1.005685 a 30.740178,5.6705175 0 0 0 -18.601009,5.205779 30.740178,5.6705175 0 0 0 30.740176,5.671065 30.740178,5.6705175 0 0 0 30.740178,-5.671065 30.740178,5.6705175 0 0 0 -18.709508,-5.209952 z"
       style="opacity:1;fill:#ffffff;fill-opacity:1;stroke:none;stroke-width:1.1127845;stroke-miterlimit:4;stroke-dasharray:none;stroke-opacity:1;paint-order:stroke markers fill" /><path
       id="path3057-8"
       d="M 66.837602,1.993659 A 43.692833,7.4015182 0 0 0 23.144528,9.3965066 43.692833,7.4015182 0 0 0 66.837602,16.797267 43.692833,7.4015182 0 0 0 110.52859,9.3965066 43.692833,7.4015182 0 0 0 66.837602,1.993659 Z m 0.118929,0.9556099 a 40.708349,6.0883457 0 0 1 40.707319,6.0883618 40.708349,6.0883457 0 0 1 -40.707319,6.0883623 40.708349,6.0883457 0 0 1 -40.7094,-6.0883623 40.708349,6.0883457 0 0 1 40.7094,-6.0883618 z"
       style="opacity:1;fill:#000000;fill-opacity:0.45145631;stroke:none;stroke-width:1.06185126;stroke-miterlimit:4;stroke-dasharray:none;stroke-opacity:1;paint-order:stroke markers fill;filter:url(#filter959)" /><path
       id="path3057"
       d="M 64.995639,0.62581163 A 43.692833,7.4015182 0 0 0 21.302565,8.0286592 43.692833,7.4015182 0 0 0 64.995639,15.42942 43.692833,7.4015182 0 0 0 108.68663,8.0286592 43.692833,7.4015182 0 0 0 64.995639,0.62581163 Z m 0.118929,0.95560997 a 40.708349,6.0883457 0 0 1 40.707322,6.0883617 40.708349,6.0883457 0 0 1 -40.707322,6.0883627 40.708349,6.0883457 0 0 1 -40.7094,-6.0883627 40.708349,6.0883457 0 0 1 40.7094,-6.0883617 z"
       style="opacity:1;fill:#ffffff;fill-opacity:0.98058256;stroke:none;stroke-width:1.06185126;stroke-miterlimit:4;stroke-dasharray:none;stroke-opacity:1;paint-order:stroke markers fill" /></g></svg>