<?xml version="1.0" encoding="UTF-8" standalone="no"?>
<svg
   xmlns:dc="http://purl.org/dc/elements/1.1/"
   xmlns:cc="http://creativecommons.org/ns#"
   xmlns:rdf="http://www.w3.org/1999/02/22-rdf-syntax-ns#"
   xmlns:svg="http://www.w3.org/2000/svg"
   xmlns="http://www.w3.org/2000/svg"
   id="svg8"
   version="1.1"
   viewBox="0 0 200.02499 42.333334"
   height="160"
   width="756">
  <defs
     id="defs2" />
  <metadata
     id="metadata5">
    <rdf:RDF>
      <cc:Work
         rdf:about="">
        <dc:format>image/svg+xml</dc:format>
        <dc:type
           rdf:resource="http://purl.org/dc/dcmitype/StillImage" />
        <dc:title></dc:title>
      </cc:Work>
    </rdf:RDF>
  </metadata>
  <g
     transform="translate(0,-254.66663)"
     id="layer1">
    <g
       transform="matrix(1.2816147,0,0,1.2816147,-29.388275,-66.348135)"
       id="g959">
      <path
         style="opacity:1;fill:#ffffff;fill-opacity:1;stroke:none;stroke-width:1.15629721;stroke-linecap:square;stroke-linejoin:miter;stroke-miterlimit:4;stroke-dasharray:none;stroke-dashoffset:0;stroke-opacity:1"
         d="m 45.379263,251.95826 a 15.564553,15.564553 0 0 0 -18.456695,9.23034 l 7.46227,1.99954 a 7.9464585,7.9464585 0 0 1 9.022739,-3.87141 7.9464585,7.9464585 0 0 1 5.878708,7.86422 l 7.455158,1.99762 a 15.564553,15.564553 0 0 0 -11.36218,-17.22031 z m -2.702594,10.08627 a 5.1225104,5.1225104 0 0 0 -6.273813,3.6221 5.1225104,5.1225104 0 0 0 3.622207,6.27379 5.1225104,5.1225104 0 0 0 6.273731,-3.6222 5.1225104,5.1225104 0 0 0 -3.622125,-6.27369 z m -16.716451,2.76169 a 15.564553,15.564553 0 0 0 11.36225,17.22042 15.564553,15.564553 0 0 0 18.45663,-9.23045 l -7.462274,-1.99954 a 7.9464585,7.9464585 0 0 1 -9.02264,3.87146 7.9464585,7.9464585 0 0 1 -5.878809,-7.86427 z"
         id="path891" />
      <path
         style="font-style:normal;font-variant:normal;font-weight:normal;font-stretch:normal;font-size:6.58106947px;line-height:125%;font-family:Dominik;-inkscape-font-specification:'Dominik, Normal';font-variant-ligatures:normal;font-variant-caps:normal;font-variant-numeric:normal;font-feature-settings:normal;text-align:start;letter-spacing:-0.79110408px;word-spacing:0px;writing-mode:lr-tb;text-anchor:start;fill:#ffcc00;fill-opacity:1;stroke:none;stroke-width:1.32240784px;stroke-linecap:butt;stroke-linejoin:miter;stroke-opacity:1"
         d="m 54.456902,255.68208 v 24.09262 h 2.407192 v -10.84271 h 7.83889 c 0.256547,0 0.495149,-0.0415 0.741276,-0.0672 -0.229913,0.77673 -0.343522,1.60251 -0.343522,2.47693 0,2.32347 0.818055,4.30965 2.456267,5.95856 1.64893,1.64895 3.639903,2.47437 5.974083,2.47437 2.32347,0 4.309666,-0.82542 5.958589,-2.47437 0.872905,-0.87289 1.508235,-1.84371 1.919037,-2.90566 0.440774,0.64496 0.954845,1.25971 1.541956,1.84414 2.344877,2.35562 5.183047,3.53331 8.512996,3.53331 3.329961,0 6.172896,-1.17769 8.528508,-3.53331 0.572536,-0.57255 1.070426,-1.17475 1.503186,-1.8054 0.40842,1.04675 1.03393,2.00465 1.89063,2.86692 1.64892,1.64895 3.64248,2.47437 5.97666,2.47437 2.32349,0 4.30968,-0.82542 5.95859,-2.47437 0.3976,-0.39757 0.72914,-0.82255 1.02797,-1.26041 a 4.5084391,4.7275991 0 0 1 -0.41067,-1.95778 4.5084391,4.7275991 0 0 1 1.79249,-3.76834 c -0.21007,-1.89403 -1.00912,-3.53905 -2.40979,-4.93062 -1.64891,-1.64893 -3.6351,-2.47435 -5.95859,-2.47435 -2.33418,0 -4.32774,0.82542 -5.97666,2.47435 -0.71451,0.71451 -1.26326,1.4983 -1.66591,2.3452 h -9.052823 v 2.40979 h 8.159153 c -0.40687,1.64889 -1.254036,3.11369 -2.538916,4.39855 -1.884469,1.88447 -4.157717,2.82819 -6.823828,2.82819 -2.666099,0 -4.937151,-0.94372 -6.81091,-2.82819 -1.884495,-1.87375 -2.825625,-4.13741 -2.825625,-6.79284 v -0.0155 c 0,-2.6661 0.936353,-4.93454 2.810125,-6.80832 1.884469,-1.88449 4.160311,-2.82821 6.82641,-2.82821 2.666111,0 4.939359,0.93635 6.823828,2.81012 l 1.68659,-1.70208 c -2.344893,-2.34484 -5.180457,-3.51781 -8.510418,-3.51781 -3.329949,0 -6.172909,1.17771 -8.528495,3.5333 -1.806112,1.80608 -2.909118,3.90903 -3.324106,6.29953 -0.04199,-0.0433 -0.07833,-0.089 -0.121349,-0.13173 -1.648923,-1.64893 -3.63512,-2.47435 -5.95859,-2.47435 -0.806118,0 -1.569166,0.10555 -2.293563,0.30219 0.03852,-0.29965 0.0827,-0.59619 0.0827,-0.91172 0,-1.83095 -0.649288,-3.39007 -1.944873,-4.67494 -1.29557,-1.29557 -2.852098,-1.94228 -4.672326,-1.94228 z m 2.407192,2.40977 h 7.83889 c 1.15638,0 2.145792,0.41274 2.970248,1.23718 0.824455,0.82446 1.237178,1.81387 1.237178,2.97027 0,1.14691 -0.40221,2.12836 -1.198432,2.94442 -0.05053,0.0484 -0.105067,0.0895 -0.154973,0.13946 -0.0018,0.001 -0.0035,0.004 -0.0051,0.005 -0.800691,0.74917 -1.74653,1.13385 -2.848851,1.13385 h -7.83889 z m 16.666994,7.22677 c 1.659619,0 3.078698,0.58883 4.256504,1.76665 1.177806,1.17778 1.766651,2.59687 1.766651,4.2565 0,1.65962 -0.588845,3.07869 -1.766651,4.25651 -1.177806,1.17777 -2.596885,1.76664 -4.256504,1.76664 -1.65962,0 -3.078699,-0.58887 -4.256504,-1.76664 -1.177799,-1.17782 -1.766654,-2.59689 -1.766654,-4.25651 0,-1.65963 0.588855,-3.07872 1.766654,-4.2565 1.177805,-1.17782 2.596884,-1.76665 4.256504,-1.76665 z m 35.831562,0 c 1.65963,0 3.07613,0.58883 4.25392,1.76665 1.17781,1.17778 1.76666,2.59687 1.76666,4.2565 0,1.65962 -0.58885,3.07869 -1.76666,4.25651 -1.17779,1.17777 -2.59429,1.76664 -4.25392,1.76664 -1.65962,0 -3.07869,-0.58887 -4.25649,-1.76664 -1.17781,-1.17782 -1.76665,-2.59689 -1.76667,-4.25651 2e-5,-1.65963 0.58886,-3.07872 1.76667,-4.2565 1.1778,-1.17782 2.59687,-1.76665 4.25649,-1.76665 z"
         id="path833" />
      <path
         style="font-style:normal;font-variant:normal;font-weight:normal;font-stretch:normal;font-size:4.3151536px;line-height:125%;font-family:Dominik;-inkscape-font-specification:'Dominik, Normal';font-variant-ligatures:normal;font-variant-caps:normal;font-variant-numeric:normal;font-feature-settings:normal;text-align:start;letter-spacing:0px;word-spacing:0px;writing-mode:lr-tb;text-anchor:start;fill:#ffffff;fill-opacity:1;stroke:none;stroke-width:1.07837355px;stroke-linecap:butt;stroke-linejoin:miter;stroke-opacity:1"
         d="m 140.13188,268.34826 c -1.5305,0 -2.80777,0.56405 -3.90781,1.61169 l -0.0413,0.0413 c -0.56082,0.66395 -1.57018,1.56087 -1.58068,3.87682 v 5.53758 h 1.58068 v -5.53758 c 0,-1.08817 0.38484,-2.0172 1.15712,-2.78945 0.77227,-0.77205 1.70383,-1.15968 2.79203,-1.15968 1.0882,0 2.0172,0.38743 2.78947,1.15968 0.77224,0.77225 1.15968,1.70128 1.15968,2.78945 v 5.54018 h 1.57811 v -5.54018 c 0,-1.08817 0.38741,-2.0172 1.15968,-2.78945 0.77227,-0.77205 1.70125,-1.15968 2.78947,-1.15968 1.0882,0 2.01975,0.38743 2.79202,1.15968 0.77226,0.77225 1.15711,1.70128 1.15711,2.78945 v 5.54018 h 1.5807 v -5.54018 c 0,-1.53045 -0.54084,-2.83363 -1.62203,-3.90781 -1.08118,-1.08119 -2.38433,-1.62202 -3.9078,-1.62202 -1.53052,0 -2.83109,0.53751 -3.90525,1.61168 -0.32998,0.32998 -0.60702,0.67861 -0.83166,1.04348 -0.23171,-0.36517 -0.51133,-0.7136 -0.83425,-1.04348 -1.08119,-1.07417 -2.38177,-1.61168 -3.90525,-1.61168 z m 20.99066,0 c -1.53052,0 -2.80778,0.56405 -3.90783,1.61169 l -0.0413,0.0413 c -0.56085,0.66395 -1.56761,1.56087 -1.5781,3.87682 v 5.53758 h 1.5781 v -5.53758 c 0,-1.08817 0.38741,-2.0172 1.15969,-2.78945 0.77227,-0.77205 1.70125,-1.15968 2.78946,-1.15968 1.08819,0 2.01977,0.38743 2.79203,1.15968 0.77226,0.77225 1.15711,1.70128 1.15711,2.78945 v 5.54018 h 1.5807 v -5.54018 c 0,-1.08817 0.38482,-2.0172 1.1571,-2.78945 0.77227,-0.77205 1.70382,-1.15968 2.79204,-1.15968 1.0882,0 2.01718,0.38743 2.78945,1.15968 0.77225,0.77225 1.15968,1.70128 1.15968,2.78945 v 5.54018 h 1.57811 v -5.54018 c 0,-1.53045 -0.54084,-2.83363 -1.62201,-3.90781 -1.08118,-1.08119 -2.38176,-1.62202 -3.90523,-1.62202 -1.53052,0 -2.83365,0.53751 -3.90782,1.61168 -0.32999,0.32998 -0.60701,0.67861 -0.83168,1.04348 -0.23168,-0.36517 -0.50875,-0.7136 -0.83166,-1.04348 -1.08119,-1.07417 -2.38434,-1.61168 -3.90782,-1.61168 z m -40.4006,0.0103 c -1.53051,0 -2.83697,0.54083 -3.91815,1.62202 -1.07417,1.07415 -1.61168,2.37472 -1.61168,3.90522 0,1.52349 0.53751,2.82664 1.61168,3.90783 1.08118,1.08118 2.38764,1.622 3.91815,1.622 1.43914,0 2.67223,-0.49969 3.71668,-1.46446 -0.37679,-0.39446 -0.67242,-0.82666 -0.91948,-1.28108 l -0.008,0.008 c -0.77228,0.77227 -1.70125,1.15711 -2.78945,1.15711 -1.08821,0 -2.01976,-0.38484 -2.79204,-1.15711 -0.77227,-0.77227 -1.15711,-1.70382 -1.15711,-2.79204 0,-1.0882 0.38484,-2.01717 1.15711,-2.78944 0.77228,-0.77228 1.70383,-1.15969 2.79204,-1.15969 1.0882,0 2.01387,0.38408 2.77911,1.14935 l 0.0491,-0.049 c 0.24154,-0.43008 0.52556,-0.84148 0.88591,-1.21651 -1.03962,-0.96279 -2.27176,-1.46189 -3.71411,-1.46189 z m 7.97835,0 c -1.5305,0 -2.83696,0.54083 -3.91815,1.62202 -1.07416,1.07415 -1.61168,2.37472 -1.61168,3.90522 0,1.52349 0.53752,2.82664 1.61168,3.90783 1.08119,1.08118 2.38765,1.622 3.91815,1.622 1.52348,0 2.82663,-0.54082 3.90782,-1.622 1.08118,-1.08119 1.61944,-2.38434 1.61944,-3.90783 0,-1.5305 -0.53826,-2.83107 -1.61944,-3.90522 -1.08119,-1.08119 -2.38434,-1.62202 -3.90782,-1.62202 z m 0,1.57811 c 1.0882,0 2.01717,0.38741 2.78944,1.15969 0.77228,0.77227 1.1597,1.70124 1.1597,2.78944 0,1.08822 -0.38742,2.01977 -1.1597,2.79204 -0.77227,0.77227 -1.70124,1.15711 -2.78944,1.15711 -1.0882,0 -2.01977,-0.38484 -2.79204,-1.15711 -0.77227,-0.77227 -1.15711,-1.70382 -1.15711,-2.79204 0,-1.0882 0.38484,-2.01717 1.15711,-2.78944 0.77227,-0.77228 1.70384,-1.15969 2.79204,-1.15969 z"
         id="path854" />
    </g>
  </g>
</svg>
