<?xml version="1.0" encoding="UTF-8" standalone="no"?>
<svg
   xmlns:dc="http://purl.org/dc/elements/1.1/"
   xmlns:cc="http://creativecommons.org/ns#"
   xmlns:rdf="http://www.w3.org/1999/02/22-rdf-syntax-ns#"
   xmlns:svg="http://www.w3.org/2000/svg"
   xmlns="http://www.w3.org/2000/svg"
   id="svg8"
   version="1.1"
   viewBox="0 0 200.02499 42.333334"
   height="160"
   width="756">
  <defs
     id="defs2" />
  <metadata
     id="metadata5">
    <rdf:RDF>
      <cc:Work
         rdf:about="">
        <dc:format>image/svg+xml</dc:format>
        <dc:type
           rdf:resource="http://purl.org/dc/dcmitype/StillImage" />
        <dc:title></dc:title>
      </cc:Work>
    </rdf:RDF>
  </metadata>
  <g
     transform="translate(0,-254.66663)"
     id="layer1">
    <path
       id="path891"
       d="M 28.770456,256.56527 A 19.94776,19.94776 0 0 0 5.1160839,268.39501 l 9.5637551,2.56264 a 10.184298,10.184298 0 0 1 11.563675,-4.96165 10.184298,10.184298 0 0 1 7.534238,10.0789 l 9.55464,2.56018 A 19.94776,19.94776 0 0 0 28.770456,256.56527 Z m -3.463685,12.92672 a 6.5650846,6.5650846 0 0 0 -8.040611,4.64213 6.5650846,6.5650846 0 0 0 4.642274,8.04058 6.5650846,6.5650846 0 0 0 8.040506,-4.64226 6.5650846,6.5650846 0 0 0 -4.642169,-8.04045 z m -21.424049,3.53942 a 19.94776,19.94776 0 0 0 14.562027,22.06994 19.94776,19.94776 0 0 0 23.654288,-11.82988 l -9.56376,-2.56264 a 10.184298,10.184298 0 0 1 -11.563548,4.96172 10.184298,10.184298 0 0 1 -7.534368,-10.07896 z"
       style="opacity:1;fill:#ffffff;fill-opacity:1;stroke:none;stroke-width:1.48192751;stroke-linecap:square;stroke-linejoin:miter;stroke-miterlimit:4;stroke-dasharray:none;stroke-dashoffset:0;stroke-opacity:1" />
    <path
       id="path833-7-7"
       transform="matrix(0.26458333,0,0,0.26458333,0,254.66663)"
       d="M 144.78125 17.285156 L 144.78125 25.214844 L 144.78125 149.8418 L 172.30078 149.8418 L 172.30078 97.320312 L 196.86719 97.320312 C 196.77697 98.593824 196.34375 99.775295 196.34375 101.07031 C 196.34375 114.18576 201.2904 126.20462 210.53906 135.51367 L 210.55273 135.5293 L 210.56055 135.53711 C 219.86859 144.84529 231.92612 149.84375 245.10156 149.84375 C 258.23375 149.84375 270.27163 144.83989 279.57422 135.53711 C 281.42914 133.68223 282.93865 131.62987 284.44727 129.58008 C 284.70329 129.84238 284.87975 130.14656 285.14062 130.40625 C 297.81939 143.12976 313.97641 149.82812 331.96289 149.82812 C 349.96201 149.82812 366.15155 143.12388 378.88281 130.39258 C 379.08124 130.19415 379.21092 129.9635 379.40625 129.76367 C 380.86519 131.73821 382.31193 133.72224 384.09375 135.51562 L 384.10156 135.5293 L 384.10938 135.53711 C 393.42028 144.84824 405.49644 149.84375 418.67188 149.84375 C 431.80415 149.84375 443.83612 144.83989 453.13867 135.53711 C 454.4244 134.2515 455.5655 132.93426 456.61328 131.61328 A 22.857144 22.857144 0 0 1 448.21484 113.92773 A 22.857144 22.857144 0 0 1 466.52539 91.552734 C 464.73274 82.132368 460.14462 73.567712 453.11523 66.583984 C 443.81537 57.29383 431.79496 52.292969 418.67188 52.292969 C 405.49644 52.292969 393.42028 57.286639 384.10938 66.597656 C 381.39137 69.315628 379.64135 72.527012 377.69531 75.640625 L 329.86719 75.640625 L 329.86719 103.16797 L 365.46289 103.16797 C 363.83492 105.86383 361.89725 108.46022 359.41602 110.94141 C 351.60614 118.75127 343.00652 122.31641 331.96289 122.31641 C 320.91932 122.31641 312.35074 118.7505 304.59961 110.95508 L 304.58398 110.94141 L 304.5625 110.92578 C 296.76216 103.16993 293.2168 94.632084 293.2168 83.642578 L 293.2168 83.568359 C 293.2168 72.510218 296.75396 63.937485 304.50195 56.189453 C 312.30927 48.382083 320.91932 44.814453 331.96289 44.814453 C 343.02113 44.814453 351.62751 48.363223 359.43164 56.123047 L 365.06445 61.71875 L 384.375 42.230469 L 378.79492 36.648438 C 366.11165 23.965477 349.95453 17.287109 331.96289 17.287109 C 313.96378 17.287109 297.78194 23.991469 285.05078 36.722656 C 278.15593 43.617422 273.71663 51.805067 270.48633 60.478516 C 262.83644 55.65444 254.45658 52.291016 245.10156 52.291016 C 243.82481 52.291016 242.68689 52.687341 241.43945 52.779297 C 240.41489 43.83478 237.05738 35.452311 230.56641 29.009766 C 222.98011 21.429545 213.02703 17.287109 202.33789 17.287109 L 144.78125 17.285156 z M 172.30078 44.8125 L 202.33789 44.8125 C 206.0529 44.8125 208.43446 45.795858 211.12109 48.482422 C 213.80769 51.169023 214.79102 53.550387 214.79102 57.265625 C 214.79102 60.922885 213.8076 63.299949 211.30664 65.896484 L 210.72266 66.441406 C 210.7185 66.445186 210.71276 66.453252 210.70898 66.457031 C 208.12327 68.870978 205.83315 69.792969 202.3457 69.792969 L 172.30078 69.792969 L 172.30078 44.8125 z M 210.57617 66.589844 C 210.37744 66.790915 210.19389 66.982213 210.16992 67.009766 C 210.13817 67.047561 210.21543 66.946896 210.50195 66.65625 C 210.51367 66.644911 210.5366 66.619453 210.55273 66.605469 C 210.56936 66.590351 210.55992 66.606209 210.57617 66.589844 z M 245.10156 79.818359 C 251.26548 79.818359 255.72723 81.668571 260.11523 86.056641 C 264.50319 90.444483 266.35352 94.906394 266.35352 101.07031 C 266.35352 107.23416 264.50332 111.68998 260.11523 116.07812 C 255.72715 120.46608 251.26535 122.31641 245.10156 122.31641 C 238.93777 122.31641 234.48182 120.46604 230.09375 116.07812 C 225.70567 111.68994 223.85547 107.23412 223.85547 101.07031 C 223.85547 94.906432 225.70581 90.444483 230.09375 86.056641 C 234.48175 81.668571 238.93765 79.818359 245.10156 79.818359 z M 418.67188 79.818359 C 424.83587 79.818359 429.27987 81.664527 433.67188 86.056641 C 438.05983 90.444483 439.90234 94.906394 439.90234 101.07031 C 439.90234 107.23416 438.05998 111.68998 433.67188 116.07812 C 429.2798 120.47013 424.83572 122.31641 418.67188 122.31641 C 412.50811 122.31641 408.04432 120.46608 403.65625 116.07812 C 399.26818 111.68998 397.41804 107.23423 397.41797 101.07031 C 397.41804 94.906319 399.26833 90.444483 403.65625 86.056641 C 408.04424 81.668571 412.50796 79.818359 418.67188 79.818359 z "
       style="color:#000000;font-style:normal;font-variant:normal;font-weight:normal;font-stretch:normal;font-size:6.58106947px;line-height:125%;font-family:Dominik;-inkscape-font-specification:'Dominik, Normal';font-variant-ligatures:normal;font-variant-position:normal;font-variant-caps:normal;font-variant-numeric:normal;font-variant-alternates:normal;font-feature-settings:normal;text-indent:0;text-align:start;text-decoration:none;text-decoration-line:none;text-decoration-style:solid;text-decoration-color:#000000;letter-spacing:-0.79110408px;word-spacing:0px;text-transform:none;writing-mode:lr-tb;direction:ltr;text-orientation:mixed;dominant-baseline:auto;baseline-shift:baseline;text-anchor:start;white-space:normal;shape-padding:0;clip-rule:nonzero;display:inline;overflow:visible;visibility:visible;opacity:1;isolation:auto;mix-blend-mode:normal;color-interpolation:sRGB;color-interpolation-filters:linearRGB;solid-color:#000000;solid-opacity:1;vector-effect:none;fill:#ffffff;fill-opacity:1;fill-rule:nonzero;stroke:none;stroke-width:15.85511875;stroke-linecap:butt;stroke-linejoin:miter;stroke-miterlimit:4;stroke-dasharray:none;stroke-dashoffset:0;stroke-opacity:1;paint-order:stroke fill markers;color-rendering:auto;image-rendering:auto;shape-rendering:auto;text-rendering:auto;enable-background:accumulate" />
    <path
       id="path833-7"
       d="m 40.404492,261.33778 v 30.87745 h 3.085093 v -13.89617 h 10.046436 c 0.328795,0 0.634591,-0.0532 0.950031,-0.0861 -0.29466,0.99547 -0.440263,2.0538 -0.440263,3.17447 0,2.9778 1.048431,5.52331 3.147988,7.63658 2.113293,2.11332 4.664953,3.17119 7.656472,3.17119 2.977795,0 5.523333,-1.05787 7.636615,-3.17119 1.118727,-1.11871 1.932977,-2.36293 2.459466,-3.72394 0.564904,0.82659 1.223743,1.61447 1.976194,2.36348 3.005231,3.019 6.642669,4.52834 10.910383,4.52834 4.267726,0 7.911271,-1.50934 10.93026,-4.52834 0.733771,-0.73379 1.371873,-1.50558 1.926503,-2.31383 0.52344,1.34153 1.3251,2.56919 2.42306,3.67429 2.11328,2.11332 4.66826,3.17119 7.65977,3.17119 2.97782,0 5.52335,-1.05787 7.63662,-3.17119 0.50957,-0.50953 0.93448,-1.05419 1.31746,-1.61536 a 5.778082,6.0589604 0 0 1 -0.52632,-2.50912 5.778082,6.0589604 0 0 1 2.29728,-4.82956 c -0.26923,-2.42742 -1.2933,-4.5357 -3.08842,-6.31915 -2.11327,-2.1133 -4.6588,-3.17117 -7.63662,-3.17117 -2.99151,0 -5.54649,1.05787 -7.65977,3.17117 -0.91573,0.91572 -1.61901,1.92024 -2.13506,3.00564 H 89.375446 v 3.08842 h 10.456889 c -0.521449,2.11324 -1.60719,3.99055 -3.253912,5.63725 -2.415162,2.41516 -5.328589,3.62465 -8.745516,3.62465 -3.416914,0 -6.327527,-1.20949 -8.728964,-3.62465 -2.415196,-2.40143 -3.621363,-5.30257 -3.621363,-8.70581 v -0.0199 c 0,-3.41691 1.200044,-6.32418 3.601498,-8.72564 2.415164,-2.41519 5.331915,-3.62468 8.748829,-3.62468 3.416927,0 6.330354,1.20004 8.745516,3.60149 l 2.161558,-2.18141 c -3.005248,-3.00518 -6.639348,-4.50848 -10.907074,-4.50848 -4.267714,0 -7.911293,1.50937 -10.930247,4.52833 -2.31474,2.3147 -3.728369,5.00987 -4.260223,8.07357 -0.05382,-0.0555 -0.100389,-0.11406 -0.155523,-0.16882 -2.113282,-2.1133 -4.658823,-3.17117 -7.636616,-3.17117 -1.033133,0 -2.011066,0.13528 -2.939464,0.38729 0.04937,-0.38403 0.105989,-0.76408 0.105989,-1.16847 0,-2.34657 -0.832137,-4.34476 -2.492577,-5.99147 -1.660422,-1.66042 -3.655291,-2.48926 -5.988122,-2.48926 z m 3.085093,3.08839 h 10.046436 c 1.482034,0 2.750079,0.52898 3.806714,1.58559 1.056634,1.05664 1.585585,2.32468 1.585585,3.80674 0,1.4699 -0.515478,2.72774 -1.535928,3.77362 -0.06476,0.062 -0.134655,0.1147 -0.198615,0.17873 -0.0023,10e-4 -0.0045,0.005 -0.0065,0.006 -1.026177,0.96014 -2.238378,1.45316 -3.651129,1.45316 H 43.489674 Z m 21.360664,9.26194 c 2.126993,0 3.945704,0.75465 5.455197,2.26416 1.509496,1.50946 2.264167,3.32819 2.264167,5.4552 0,2.12699 -0.754671,3.94569 -2.264167,5.4552 -1.509493,1.50945 -3.328204,2.26415 -5.455197,2.26415 -2.126993,0 -3.945706,-0.7547 -5.455198,-2.26415 -1.509484,-1.50951 -2.26417,-3.32821 -2.26417,-5.4552 0,-2.12701 0.754686,-3.94574 2.26417,-5.4552 1.509492,-1.50951 3.328205,-2.26416 5.455198,-2.26416 z m 45.922251,0 c 2.12701,0 3.94242,0.75465 5.45189,2.26416 1.5095,1.50946 2.26418,3.32819 2.26418,5.4552 0,2.12699 -0.75468,3.94569 -2.26418,5.4552 -1.50947,1.50945 -3.32488,2.26415 -5.45189,2.26415 -2.12699,0 -3.94569,-0.7547 -5.45518,-2.26415 -1.50949,-1.50951 -2.26416,-3.32821 -2.26419,-5.4552 3e-5,-2.12701 0.7547,-3.94574 2.26419,-5.4552 1.50949,-1.50951 3.32819,-2.26416 5.45518,-2.26416 z"
       style="font-style:normal;font-variant:normal;font-weight:normal;font-stretch:normal;font-size:6.58106947px;line-height:125%;font-family:Dominik;-inkscape-font-specification:'Dominik, Normal';font-variant-ligatures:normal;font-variant-caps:normal;font-variant-numeric:normal;font-feature-settings:normal;text-align:start;letter-spacing:-0.79110408px;word-spacing:0px;writing-mode:lr-tb;text-anchor:start;fill:#ffcc00;fill-opacity:1;stroke:none;stroke-width:4.195;stroke-linecap:butt;stroke-linejoin:miter;stroke-opacity:1;stroke-miterlimit:4;stroke-dasharray:none;paint-order:stroke fill markers" />
    <path
       id="path854"
       d="m 150.2068,277.57094 c -1.96151,0 -3.59848,0.72289 -5.0083,2.06557 l -0.0529,0.0529 c -0.71875,0.85092 -2.01236,2.00043 -2.02582,4.96859 v 7.09704 h 2.02582 V 284.658 c 0,-1.39462 0.49322,-2.58528 1.48299,-3.575 0.98975,-0.98948 2.18365,-1.48627 3.5783,-1.48627 1.39466,0 2.58528,0.49654 3.57503,1.48627 0.98971,0.98972 1.48626,2.18038 1.48626,3.575 v 7.10037 h 2.02253 V 284.658 c 0,-1.39462 0.49651,-2.58528 1.48626,-3.575 0.98976,-0.98948 2.18035,-1.48627 3.57503,-1.48627 1.39465,0 2.58854,0.49654 3.57829,1.48627 0.98974,0.98972 1.48297,2.18038 1.48297,3.575 v 7.10037 h 2.02585 V 284.658 c 0,-1.96145 -0.69315,-3.63163 -2.07882,-5.00831 -1.38565,-1.38567 -3.05579,-2.07881 -5.00829,-2.07881 -1.96154,0 -3.62837,0.68888 -5.00503,2.06556 -0.4229,0.4229 -0.77796,0.86971 -1.06586,1.33734 -0.29697,-0.46801 -0.65533,-0.91456 -1.06919,-1.33734 -1.38567,-1.37668 -3.05251,-2.06556 -5.00503,-2.06556 z m 26.90194,0 c -1.96154,0 -3.59849,0.72289 -5.00833,2.06557 l -0.0529,0.0529 c -0.7188,0.85092 -2.00907,2.00043 -2.02252,4.96859 v 7.09704 h 2.02252 V 284.658 c 0,-1.39462 0.49651,-2.58528 1.48627,-3.575 0.98976,-0.98948 2.18035,-1.48627 3.57502,-1.48627 1.39464,0 2.58856,0.49654 3.5783,1.48627 0.98974,0.98972 1.48297,2.18038 1.48297,3.575 v 7.10037 h 2.02585 V 284.658 c 0,-1.39462 0.49319,-2.58528 1.48296,-3.575 0.98975,-0.98948 2.18364,-1.48627 3.57832,-1.48627 1.39465,0 2.58524,0.49654 3.575,1.48627 0.98972,0.98972 1.48626,2.18038 1.48626,3.575 v 7.10037 h 2.02253 V 284.658 c 0,-1.96145 -0.69315,-3.63163 -2.07879,-5.00831 -1.38566,-1.38567 -3.0525,-2.07881 -5.005,-2.07881 -1.96154,0 -3.63165,0.68888 -5.00832,2.06556 -0.42292,0.4229 -0.77796,0.86971 -1.0659,1.33734 -0.29692,-0.46801 -0.65202,-0.91456 -1.06586,-1.33734 -1.38567,-1.37668 -3.05581,-2.06556 -5.00832,-2.06556 z m -51.778,0.0132 c -1.96153,0 -3.6359,0.69314 -5.02156,2.07881 -1.37667,1.37664 -2.06555,3.04347 -2.06555,5.00498 0,1.95253 0.68888,3.62267 2.06555,5.00833 1.38566,1.38566 3.06003,2.07878 5.02156,2.07878 1.84442,0 3.42477,-0.64041 4.76335,-1.87687 -0.4829,-0.50555 -0.86178,-1.05946 -1.17842,-1.64185 l -0.0103,0.0103 c -0.98977,0.98975 -2.18035,1.48297 -3.575,1.48297 -1.39467,0 -2.58856,-0.49322 -3.57832,-1.48297 -0.98975,-0.98975 -1.48297,-2.18364 -1.48297,-3.57832 0,-1.39465 0.49322,-2.58523 1.48297,-3.57498 0.98976,-0.98977 2.18365,-1.48628 3.57832,-1.48628 1.39465,0 2.581,0.49224 3.56175,1.47302 l 0.0629,-0.0628 c 0.30956,-0.55119 0.67357,-1.07845 1.1354,-1.55909 -1.33239,-1.23393 -2.91152,-1.87358 -4.76006,-1.87358 z m 10.22517,0 c -1.96151,0 -3.63589,0.69314 -5.02156,2.07881 -1.37666,1.37664 -2.06555,3.04347 -2.06555,5.00498 0,1.95253 0.68889,3.62267 2.06555,5.00833 1.38567,1.38566 3.06005,2.07878 5.02156,2.07878 1.95251,0 3.62265,-0.69312 5.00832,-2.07878 1.38565,-1.38566 2.0755,-3.0558 2.0755,-5.00833 0,-1.96151 -0.68985,-3.62834 -2.0755,-5.00498 -1.38567,-1.38567 -3.05581,-2.07881 -5.00832,-2.07881 z m 0,2.02253 c 1.39465,0 2.58523,0.49651 3.57499,1.48628 0.98976,0.98975 1.48628,2.18033 1.48628,3.57498 0,1.39468 -0.49652,2.58857 -1.48628,3.57832 -0.98976,0.98975 -2.18034,1.48297 -3.57499,1.48297 -1.39465,0 -2.58857,-0.49322 -3.57832,-1.48297 -0.98975,-0.98975 -1.48297,-2.18364 -1.48297,-3.57832 0,-1.39465 0.49322,-2.58523 1.48297,-3.57498 0.98975,-0.98977 2.18367,-1.48628 3.57832,-1.48628 z"
       style="font-style:normal;font-variant:normal;font-weight:normal;font-stretch:normal;font-size:4.3151536px;line-height:125%;font-family:Dominik;-inkscape-font-specification:'Dominik, Normal';font-variant-ligatures:normal;font-variant-caps:normal;font-variant-numeric:normal;font-feature-settings:normal;text-align:start;letter-spacing:0px;word-spacing:0px;writing-mode:lr-tb;text-anchor:start;fill:#ffffff;fill-opacity:1;stroke:none;stroke-width:3.382;stroke-linecap:butt;stroke-linejoin:miter;stroke-opacity:1;stroke-miterlimit:4;stroke-dasharray:none;paint-order:stroke fill markers" />
  </g>
</svg>
